<svg id="Calque_1_Image" data-name="Calque 1 Image" xmlns="http://www.w3.org/2000/svg" viewBox="0 0 512.16 448.08"><defs><style>.cls-1{fill:#0d469f;}.cls-2{fill:#fefefe;}</style></defs><title>briefcase-solid</title><path class="cls-1" d="M.5,405.12V256.42a1.57,1.57,0,0,1,1.28-.53c.72,0,1.44,0,2.16,0H189.23c.84,0,1.68,0,2.52,0a1.34,1.34,0,0,1,1.38,1.36c.06.72.05,1.44.05,2.16q0,22.36,0,44.73a15.4,15.4,0,0,0,14.72,15.74h96.18a15.43,15.43,0,0,0,9.6-3.21,14.56,14.56,0,0,0,6-12c.07-15.07,0-30.14,0-45.21,0-.72,0-1.44.05-2.16a1.37,1.37,0,0,1,1.44-1.43c.59,0,1.19,0,1.79,0H509.58c3.64,0,2.9.19,2.9,2.94q0,72.32,0,144.62a38.2,38.2,0,0,1-3.73,16.44,51.38,51.38,0,0,1-20.49,22.68,47.9,47.9,0,0,1-11.87,5.07,34.46,34.46,0,0,1-6.4.79c-.35,0-.72-.08-1.05.12h-425c-1.53-.21-3.08-.19-4.61-.4a36.33,36.33,0,0,1-9.45-2.91A48,48,0,0,1,17,437a50,50,0,0,1-15.67-25,34.67,34.67,0,0,1-.7-5.91C.59,405.82.73,405.45.5,405.12Z" transform="translate(-0.48 -0.48)"/><path class="cls-1" d="M.5,224.76V140.09a30.13,30.13,0,0,0,.32-3.67,31.34,31.34,0,0,1,2.85-10.1A49,49,0,0,1,16.6,108.53a47.81,47.81,0,0,1,26.72-12.2,38.86,38.86,0,0,1,4.18-.19h77.6c2.7,0,2.7,0,2.7-2.73q0-22.25,0-44.49a45.18,45.18,0,0,1,5-21.14,50.72,50.72,0,0,1,30-25.65A31.92,31.92,0,0,1,173.07.64q83.35,0,166.7,0c7.6,0,14.43,2.45,20.84,6.29a50.55,50.55,0,0,1,18.57,19.27,46,46,0,0,1,5.7,18.52c.13,1.56.19,3.11.19,4.67V93.62c0,2.51,0,2.52,2.56,2.52q39.17,0,78.31,0a42.74,42.74,0,0,1,17.61,4.09,50.15,50.15,0,0,1,16.88,12.42,48.63,48.63,0,0,1,11.46,21.83,30.31,30.31,0,0,1,.59,6.79q0,41.13,0,82.26c0,1.6-.11,1.71-1.67,1.76-.6,0-1.2,0-1.8,0H3.88c-.72,0-1.44,0-2.16,0A1.56,1.56,0,0,1,.5,224.76Z" transform="translate(-0.48 -0.48)"/><path class="cls-2" d="M.5,224.76H510.57c.4,0,.8,0,1.2,0s.64-.16.61-.62,0-.64,0-1c0-26,0-52.05,0-78.07a46.06,46.06,0,0,0-2.78-16.23,47.65,47.65,0,0,0-7.38-13.18A50.86,50.86,0,0,0,490,104.45a47.45,47.45,0,0,0-17.38-7.07,39.87,39.87,0,0,0-7.39-.7q-39.7,0-79.4,0c-1.05,0-1.38-.22-1.37-1.34,0-15.91.08-31.82,0-47.73a43.43,43.43,0,0,0-3.31-15.95,50.27,50.27,0,0,0-7.86-13.19A49.43,49.43,0,0,0,360.88,7.72a46.29,46.29,0,0,0-11.22-5.07A48.9,48.9,0,0,0,341.43.94,45.35,45.35,0,0,0,336,.76q-80.66,0-161.31,0a40.23,40.23,0,0,0-13.31,2.48,47.21,47.21,0,0,0-11.67,6,51.08,51.08,0,0,0-12.49,12.4,49.08,49.08,0,0,0-6.73,13.51,38.08,38.08,0,0,0-1.86,9.5c-.57,10.45-.13,20.91-.24,31.36-.06,6.44,0,12.88,0,19.31,0,1.07-.23,1.37-1.35,1.37q-40.41,0-80.83,0a38.65,38.65,0,0,0-13.58,2.78,49,49,0,0,0-10.74,5.59A51.51,51.51,0,0,0,9.64,117a47.11,47.11,0,0,0-7.29,14.63,35.74,35.74,0,0,0-1.61,8.12c0,.17-.05.31-.24.35Q.5,70.85.48,1.6C.48.73.64.48,1.57.48q254.94,0,509.89,0c1,0,1.18.17,1.18,1.16q0,222.84,0,445.7c0,1-.23,1.22-1.23,1.22q-21.23-.06-42.45,0c1.28-.24,2.55-.49,3.84-.71a45,45,0,0,0,10.41-3.29,47.09,47.09,0,0,0,10.91-6.69,51.12,51.12,0,0,0,11.52-13.22,47.18,47.18,0,0,0,5.63-13.73,36.05,36.05,0,0,0,1.11-8q0-72.48,0-145c0-1.29-.37-1.51-1.56-1.51q-94.56,0-189.11,0c-1.3,0-1.52.37-1.52,1.57q.07,23.73,0,47.48a14.55,14.55,0,0,1-3.41,9,16,16,0,0,1-9.05,5.65,11.31,11.31,0,0,1-2.79.38l-96.66,0a15.19,15.19,0,0,1-9.62-3.44,15.39,15.39,0,0,1-6.05-12.75c0-15.51,0-31,0-46.52,0-1.11-.3-1.35-1.37-1.34q-95.38,0-190.79,0Z" transform="translate(-0.48 -0.48)"/><path class="cls-2" d="M.5,405.12c.24,1.28.49,2.56.72,3.84a48.33,48.33,0,0,0,10,21.31A52.14,52.14,0,0,0,21,439.5a48.74,48.74,0,0,0,14.43,7.18,34.52,34.52,0,0,0,8.11,1.62c.17,0,.31.05.36.23q-21.22,0-42.46,0c-.82,0-1-.16-1-1Q.53,426.35.5,405.12Z" transform="translate(-0.48 -0.48)"/><path class="cls-2" d="M256.45,96.68q-31.23,0-62.46,0c-1,0-1.39-.2-1.39-1.33q.09-14.7,0-29.38c0-1,.21-1.24,1.23-1.24q62.58,0,125.17,0c1,0,1.26.17,1.26,1.21q-.07,14.75,0,29.49c0,1-.22,1.25-1.23,1.25Q287.75,96.65,256.45,96.68Z" transform="translate(-0.48 -0.48)"/></svg>