<svg id="Calque_1_Image" data-name="Calque 1 Image" xmlns="http://www.w3.org/2000/svg" viewBox="0 0 59.51 68.03"><defs><style>.cls-1{fill:#0d469e;}.cls-2{fill:#fcfcfc;}.cls-3{fill:#0d469f;}.cls-4{fill:#fefefe;}</style></defs><title>icone-etude</title><path class="cls-1" d="M29,1.5h1.65c.29,0,.58,0,.87.05a9.06,9.06,0,0,1,1.36.26L37.74,3l3.73.9,4.84,1.17L50,6l4.86,1.17c1,.24,2,.47,2.95.72A2.42,2.42,0,0,1,59.34,9a1.23,1.23,0,0,1,.15.59s0,.07,0,.1v.64a1.94,1.94,0,0,1-.2.75,2.36,2.36,0,0,1-1.44,1.07c-1.61.41-3.24.78-4.85,1.18l-4.69,1.12-3,.71-.14,0c-.13,0-.14.07-.08.19a18,18,0,0,1,.72,1.7A16.65,16.65,0,0,1,46.61,20a17.14,17.14,0,0,1-.38,7.37,16.59,16.59,0,0,1-1.43,3.55,17.16,17.16,0,0,1-3.41,4.39,15.65,15.65,0,0,1-2.51,1.93,16.37,16.37,0,0,1-1.58.89,17,17,0,0,1-4.21,1.41,16.32,16.32,0,0,1-2,.27,18,18,0,0,1-1.94,0A16.94,16.94,0,0,1,19,36a19.14,19.14,0,0,1-1.86-1.74,16.3,16.3,0,0,1-2.32-3.21,16.82,16.82,0,0,1-1.75-4.56,20.13,20.13,0,0,1-.34-2.2,17.89,17.89,0,0,1,0-2.43,15.34,15.34,0,0,1,.55-3.43,18.48,18.48,0,0,1,1.15-3.06c.07-.14.05-.18-.1-.21l-3-.73-2.42-.59-2.69-.65c-.17,0-.2,0-.2.17v6.4a.31.31,0,0,0,.15.29,3.37,3.37,0,0,1,1.07,1.18,3.1,3.1,0,0,1-.65,3.78,2.17,2.17,0,0,1-.29.24.24.24,0,0,0-.1.29l.78,3.11c.33,1.3.65,2.61,1,3.92.1.36.19.72.26,1.09A1.93,1.93,0,0,1,8,34.93a1.12,1.12,0,0,1-1.07.66c-1.76,0-3.51,0-5.27,0a1.27,1.27,0,0,1-1.25-1,2.15,2.15,0,0,1,0-1q1-3.92,2-7.83a.39.39,0,0,0-.16-.46,3.07,3.07,0,0,1-1.16-1.85,3,3,0,0,1,.78-2.76,3.72,3.72,0,0,1,.63-.56.22.22,0,0,0,.12-.22V12.49a.14.14,0,0,0-.13-.15l-.59-.13a2.45,2.45,0,0,1-1.74-1.3,1.57,1.57,0,0,1-.12-.6A3.64,3.64,0,0,1,0,9.5,1.93,1.93,0,0,1,1,8.15a3,3,0,0,1,1-.37L5.06,7,10.4,5.74l3.52-.85,4.25-1L21.69,3,26.11,2c.57-.13,1.13-.3,1.71-.38.32-.05.64-.05,1-.07A.37.37,0,0,0,29,1.5Z" transform="translate(0 -1.49)"/><path class="cls-2" d="M29,1.5a1.44,1.44,0,0,1-.46.05,10.46,10.46,0,0,0-1.36.24c-1,.22-1.95.46-2.92.69L22,3l-2.9.7-2.42.59-3,.72-2.16.53-3,.71-2.27.55-2.89.7c-.57.13-1.16.24-1.73.42A2.12,2.12,0,0,0,.06,9.61a2,2,0,0,0,.58,1.87,2.42,2.42,0,0,0,1.3.66c.23,0,.45.11.68.15,0,0,0,0,0,.08v7.5a.26.26,0,0,1-.13.25A3.13,3.13,0,0,0,1.23,21.8a2.77,2.77,0,0,0-.12,1.34,3.07,3.07,0,0,0,1.05,1.94,1.1,1.1,0,0,0,.25.19c.13.06.13.15.1.27-.31,1.22-.62,2.43-.92,3.65S1,31.69.65,32.94A5.39,5.39,0,0,0,.42,34a1.72,1.72,0,0,0,.2.87,1.15,1.15,0,0,0,.56.53.88.88,0,0,0,.42.08H6.89A1.12,1.12,0,0,0,8,34.7a2.29,2.29,0,0,0,0-1.37c-.37-1.37-.7-2.75-1-4.14L6,25.47c0-.09,0-.11.06-.16a3.18,3.18,0,0,0,1.27-1.72,3,3,0,0,0-.14-2.05A3.47,3.47,0,0,0,6,20.08a.14.14,0,0,1-.09-.14V13.15a.13.13,0,0,1,0-.06l1.88.45,2.89.7,2.31.57,1.49.35c.12,0,.14.05.08.15a17,17,0,0,0-1.08,2.74A14.71,14.71,0,0,0,13,20a16,16,0,0,0-.2,1.71c0,.64,0,1.28,0,1.92a17.69,17.69,0,0,0,1,4.9,17.55,17.55,0,0,0,1.08,2.38,16.85,16.85,0,0,0,1.4,2.15A16.83,16.83,0,0,0,24.74,39a15.5,15.5,0,0,0,2.14.51c.38.06.78.12,1.17.16s.63,0,.94.06a9.94,9.94,0,0,0,1.22,0c.52,0,1.05,0,1.57-.12a16.79,16.79,0,0,0,4.54-1.18c.47-.19.92-.4,1.37-.63a17.28,17.28,0,0,0,4.6-3.55,14.84,14.84,0,0,0,1.29-1.58,16.65,16.65,0,0,0,1.68-2.88,17.5,17.5,0,0,0,1-3c.13-.52.23-1,.31-1.58,0-.31.07-.63.1-.95a16.91,16.91,0,0,0,.06-2.25,14.24,14.24,0,0,0-.15-1.59,15.68,15.68,0,0,0-.49-2.26A16,16,0,0,0,45,15.3c0-.07,0-.12.06-.15l2.19-.53c.88-.2,1.76-.42,2.64-.63l2.65-.64L54.2,13l2.88-.7a4.88,4.88,0,0,0,1.31-.41,2,2,0,0,0,1.08-1.5l0,0V60.79c-.11,0-.09-.1-.1-.17A16.14,16.14,0,0,0,59,58a17.16,17.16,0,0,0-1-3.14,18.12,18.12,0,0,0-1.94-3.43,17.82,17.82,0,0,0-5.44-4.93A18.16,18.16,0,0,0,44,44.26c-.42-.06-.85-.08-1.27-.13a.57.57,0,0,0-.51.18q-6.09,6.12-12.19,12.21c-.29.28-.3.28-.58,0L17.34,44.37a.74.74,0,0,0-.69-.23c-.51,0-1,.09-1.51.17a17.9,17.9,0,0,0-10.3,5.45,17.69,17.69,0,0,0-4,6.82A19.17,19.17,0,0,0,.25,59.4a24.67,24.67,0,0,0-.13,4.21A5.47,5.47,0,0,0,.78,66a6.34,6.34,0,0,0,4.45,3.35,6.22,6.22,0,0,0,1,.1H53.34A6.08,6.08,0,0,0,56,68.74a6.32,6.32,0,0,0,3.33-4.46l.06-.41s0-.12.1-.12v5.64c0,.11,0,.13-.13.13H.13c-.11,0-.13,0-.13-.14V1.64c0-.13,0-.15.15-.15Z" transform="translate(0 -1.49)"/><path class="cls-3" d="M59.51,63.75a3.41,3.41,0,0,0-.1.54,6.43,6.43,0,0,1-3.17,4.41,6.18,6.18,0,0,1-1.66.63,4.85,4.85,0,0,1-1.08.15H6.07a5.21,5.21,0,0,1-1.36-.21,6.11,6.11,0,0,1-2-1A6.43,6.43,0,0,1,.31,65a5.19,5.19,0,0,1-.25-1.17c-.06-.78,0-1.56,0-2.34a16.79,16.79,0,0,1,.13-1.87,17.14,17.14,0,0,1,2-6.35A18,18,0,0,1,3.68,51a13.87,13.87,0,0,1,.93-1.1c.32-.36.67-.72,1-1.06a15.82,15.82,0,0,1,1.8-1.47,18.09,18.09,0,0,1,2.14-1.32,20.1,20.1,0,0,1,2-.89,17.15,17.15,0,0,1,2.11-.65c.47-.11,1-.2,1.43-.27a11.85,11.85,0,0,1,1.46-.16l.15,0a.7.7,0,0,1,.62.23q6.12,6.15,12.28,12.29l.13.15.12-.15L42.2,44.26a.65.65,0,0,1,.63-.2,5.11,5.11,0,0,0,.55,0c.69.07,1.37.19,2,.32a17.52,17.52,0,0,1,1.89.5,18.19,18.19,0,0,1,2,.81,17.62,17.62,0,0,1,2.63,1.52c.43.3.83.62,1.23,1a17.13,17.13,0,0,1,1.52,1.43,18.69,18.69,0,0,1,1.45,1.75,18.1,18.1,0,0,1,1.72,2.91,15.7,15.7,0,0,1,1,2.73,14.89,14.89,0,0,1,.39,1.73c.08.5.15,1,.2,1.5a1.57,1.57,0,0,0,0,.53Z" transform="translate(0 -1.49)"/><path class="cls-4" d="M59.51,9.68c-.07-.14-.09-.31-.15-.46a2.26,2.26,0,0,0-.89-1,4.3,4.3,0,0,0-1.28-.43c-.73-.19-1.46-.36-2.18-.53l-2.93-.71-1.83-.44-2.9-.7-2.77-.67L41.68,4l-2.91-.7L36,2.65,33.1,2a15.64,15.64,0,0,0-1.68-.35,3.61,3.61,0,0,0-.73-.07s-.07,0-.08,0H59.36c.12,0,.14,0,.14.14C59.5,4.32,59.51,7,59.51,9.68Z" transform="translate(0 -1.49)"/></svg>